<svg width="20" height="21" viewBox="0 0 20 21" fill="none" xmlns="http://www.w3.org/2000/svg">
<path d="M9.49177 5.48981C9.62656 5.35502 9.80937 5.27929 10 5.27929C10.1906 5.27929 10.3734 5.35502 10.5082 5.48981C10.643 5.6246 10.7187 5.80742 10.7187 5.99804V10.123C10.7187 10.3137 10.643 10.4965 10.5082 10.6313C10.3734 10.7661 10.1906 10.8418 10 10.8418C9.80937 10.8418 9.62656 10.7661 9.49177 10.6313C9.35698 10.4965 9.28125 10.3137 9.28125 10.123V5.99804C9.28125 5.80742 9.35698 5.6246 9.49177 5.48981Z" fill="#F2994A"/>
<path d="M10.6532 13.9577L10.6861 14.0255C10.7007 14.0481 10.7125 14.0722 10.7215 14.0975C10.7234 14.14 10.7227 14.1826 10.7196 14.2251L10.7189 14.2347L10.7188 14.2443C10.7176 14.3382 10.6981 14.431 10.6613 14.5174L10.6579 14.5254L10.6549 14.5336C10.6242 14.6185 10.5752 14.6955 10.5113 14.7594C10.4475 14.8232 10.3704 14.8722 10.2855 14.9029L10.2754 14.9066L10.2655 14.911C10.1819 14.9479 10.0915 14.967 10 14.967C9.90855 14.967 9.8181 14.9479 9.73445 14.911L9.7246 14.9066L9.71447 14.9029C9.62959 14.8722 9.5525 14.8232 9.48867 14.7594C9.42483 14.6955 9.37582 14.6185 9.3451 14.5336L9.34214 14.5254L9.33873 14.5174C9.30202 14.4313 9.28249 14.3388 9.28124 14.2452C9.28083 14.151 9.29896 14.0576 9.3346 13.9703C9.36936 13.8852 9.42011 13.8076 9.48409 13.7416C9.55647 13.6771 9.63911 13.625 9.72862 13.5876C9.85951 13.5326 10.0044 13.5173 10.1438 13.5441C10.2778 13.57 10.4015 13.6333 10.5007 13.7267L10.6033 13.855C10.624 13.8871 10.6408 13.9215 10.6532 13.9577Z" fill="#F2994A"/>
<path fill-rule="evenodd" clip-rule="evenodd" d="M4.4443 1.80835C6.08879 0.709536 8.02219 0.123047 10 0.123047C11.3132 0.123047 12.6136 0.381704 13.8268 0.884251C15.0401 1.3868 16.1425 2.12339 17.0711 3.05198C17.9996 3.98056 18.7362 5.08295 19.2388 6.29621C19.7413 7.50946 20 8.80982 20 10.123C20 12.1009 19.4135 14.0343 18.3147 15.6787C17.2159 17.3232 15.6541 18.605 13.8268 19.3618C11.9996 20.1187 9.98891 20.3167 8.0491 19.9309C6.10929 19.545 4.32746 18.5926 2.92894 17.1941C1.53041 15.7956 0.578004 14.0138 0.192152 12.0739C-0.1937 10.1341 0.00433284 8.12347 0.761209 6.29621C1.51808 4.46895 2.79981 2.90716 4.4443 1.80835ZM13.2767 2.21233C11.7121 1.56425 9.9905 1.39469 8.32954 1.72507C6.66858 2.05546 5.14289 2.87096 3.9454 4.06844C2.74791 5.26593 1.93242 6.79162 1.60203 8.45258C1.27164 10.1135 1.44121 11.8352 2.08928 13.3998C2.73736 14.9644 3.83484 16.3016 5.24293 17.2425C6.65103 18.1834 8.3065 18.6855 10 18.6855C12.2709 18.6855 14.4488 17.7834 16.0546 16.1776C17.6604 14.5719 18.5625 12.394 18.5625 10.123C18.5625 8.42954 18.0603 6.77407 17.1195 5.36597C16.1786 3.95788 14.8413 2.8604 13.2767 2.21233Z" fill="#F2994A"/>
</svg>
