<svg width="28" height="23" viewBox="0 0 28 23" fill="none" xmlns="http://www.w3.org/2000/svg">
<path fill-rule="evenodd" clip-rule="evenodd" d="M17.4483 0.472927C18.236 0.46989 19.0051 0.711902 19.6491 1.16543C20.2921 1.61825 20.7786 2.25955 21.0415 3.00071L21.5276 4.51984H23.4368C23.9408 4.51977 24.4398 4.62004 24.9046 4.8148C25.3694 5.00956 25.7909 5.29491 26.1443 5.65421C26.4977 6.01352 26.776 6.43959 26.9631 6.90758C27.1501 7.37558 27.2421 7.87612 27.2337 8.38004V19.176C27.2337 20.183 26.8337 21.1487 26.1216 21.8608C25.4096 22.5729 24.4438 22.9729 23.4368 22.9729H4.55119C3.54418 22.9729 2.57842 22.5729 1.86636 21.8608C1.1543 21.1487 0.754272 20.183 0.754272 19.176V8.38421C0.754272 7.3772 1.1543 6.41144 1.86636 5.69938C2.57842 4.98732 3.54418 4.58729 4.55119 4.58729H6.46036L6.94717 3.06602C7.19918 2.31218 7.68142 1.65641 8.32593 1.19118C8.97079 0.7257 9.74554 0.474466 10.5409 0.472928L17.4483 0.472927ZM9.67391 2.96963C9.94639 2.77459 10.2732 2.67009 10.6083 2.67087H17.5145C17.8496 2.67009 18.1765 2.77459 18.449 2.96963C18.7215 3.16474 18.9259 3.44058 19.0332 3.75817L19.0338 3.75998L19.762 5.97163C19.8326 6.1809 19.9646 6.36405 20.1408 6.49719C20.3158 6.62938 20.5262 6.70618 20.7451 6.71779H23.4368C23.8609 6.71779 24.2676 6.88625 24.5674 7.18612C24.8673 7.48598 25.0358 7.89269 25.0358 8.31676V19.1085C25.0358 19.5326 24.8673 19.9393 24.5674 20.2392C24.2676 20.539 23.8609 20.7075 23.4368 20.7075H4.55119C4.12711 20.7075 3.72041 20.539 3.42054 20.2392C3.12068 19.9393 2.95222 19.5326 2.95222 19.1085V8.31676C2.95222 7.89269 3.12068 7.48598 3.42054 7.18612C3.72041 6.88625 4.12711 6.71779 4.55119 6.71779L7.26216 6.71813C7.50181 6.73064 7.73897 6.66436 7.93741 6.52942C8.13565 6.39461 8.2846 6.19801 8.36113 5.97083L9.08909 3.75999L9.08969 3.75817C9.19696 3.44058 9.40133 3.16474 9.67391 2.96963ZM11.1351 8.08503C11.9813 7.51959 12.9762 7.21779 13.994 7.21779C15.3588 7.21779 16.6676 7.75994 17.6327 8.72498C18.5977 9.69002 19.1399 10.9989 19.1399 12.3637C19.1399 13.3814 18.8381 14.3763 18.2726 15.2226C17.7072 16.0688 16.9035 16.7284 15.9632 17.1179C15.0229 17.5073 13.9883 17.6092 12.9901 17.4107C11.9919 17.2121 11.075 16.722 10.3553 16.0024C9.63563 15.2827 9.14553 14.3658 8.94698 13.3676C8.74842 12.3694 8.85033 11.3347 9.23981 10.3944C9.62929 9.45414 10.2889 8.65046 11.1351 8.08503ZM15.1221 9.64013C14.5835 9.41701 13.9907 9.35863 13.4189 9.47237C12.847 9.58612 12.3218 9.86689 11.9095 10.2792C11.4972 10.6914 11.2164 11.2167 11.1027 11.7886C10.9889 12.3604 11.0473 12.9531 11.2704 13.4918C11.4936 14.0305 11.8714 14.4909 12.3562 14.8148C12.841 15.1387 13.4109 15.3116 13.994 15.3116C14.7758 15.3116 15.5257 15.001 16.0785 14.4482C16.6313 13.8953 16.9419 13.1455 16.9419 12.3637C16.9419 11.7806 16.769 11.2107 16.4451 10.7259C16.1212 10.2411 15.6608 9.86325 15.1221 9.64013Z" fill="white"/>
</svg>
