<svg width="32" height="32" viewBox="0 0 32 32" fill="none" xmlns="http://www.w3.org/2000/svg">
<path d="M15.1162 23.1339L15.1176 23.1352C15.1463 23.1638 15.1764 23.191 15.2078 23.2167C15.2224 23.2287 15.2376 23.239 15.2526 23.2502C15.2703 23.2634 15.2876 23.2772 15.3061 23.2895C15.3239 23.3015 15.3424 23.3118 15.3607 23.3227C15.3774 23.3326 15.3937 23.3431 15.4109 23.3523C15.4295 23.3623 15.4488 23.3708 15.4678 23.3797C15.4857 23.3882 15.5034 23.3972 15.5218 23.4048C15.5402 23.4124 15.5591 23.4187 15.5778 23.4253C15.5976 23.4324 15.617 23.44 15.6372 23.4461C15.656 23.4518 15.6751 23.4559 15.694 23.4607C15.7145 23.4659 15.7349 23.4716 15.7558 23.4758C15.7778 23.4801 15.7999 23.4827 15.822 23.4859C15.8402 23.4885 15.8582 23.492 15.8767 23.4938C15.9587 23.5019 16.0414 23.5019 16.1234 23.4938C16.1419 23.492 16.1598 23.4886 16.1781 23.4859C16.2002 23.4828 16.2224 23.4802 16.2443 23.4758C16.2653 23.4716 16.2855 23.4659 16.3061 23.4607C16.3251 23.4559 16.3441 23.4518 16.3629 23.4461C16.383 23.44 16.4026 23.4324 16.4222 23.4253C16.441 23.4186 16.4599 23.4124 16.4783 23.4048C16.4967 23.3972 16.5143 23.3882 16.5323 23.3797C16.5513 23.3708 16.5705 23.3623 16.5892 23.3523C16.6063 23.3431 16.6227 23.3326 16.6394 23.3227C16.6577 23.3118 16.6762 23.3014 16.694 23.2895C16.7125 23.2772 16.7298 23.2634 16.7475 23.2502C16.7624 23.239 16.7777 23.2286 16.7923 23.2167C16.8236 23.191 16.8538 23.1638 16.8825 23.1352L16.8838 23.1339L23.1339 16.8839C23.622 16.3958 23.622 15.6043 23.1339 15.1161C22.6457 14.628 21.8542 14.628 21.3661 15.1161L17.25 19.2322V2.24998C17.2501 1.55963 16.6905 1 16.0001 1C15.3098 1 14.7501 1.55963 14.7501 2.24998V19.2322L10.634 15.1161C10.1459 14.628 9.35441 14.628 8.86627 15.1161C8.37812 15.6043 8.37812 16.3958 8.86627 16.8839L15.1162 23.1339Z" fill="white"/>
<path d="M29.7501 22.2501C29.0597 22.2501 28.5001 22.8097 28.5001 23.5001V28.5001H3.50002V23.5001C3.50002 22.8097 2.94039 22.2501 2.25004 22.2501C1.55963 22.2501 1 22.8097 1 23.5001V29.7501C1 30.4405 1.55963 31.0001 2.24998 31.0001H29.75C30.4404 31.0001 31 30.4405 31 29.7501V23.5001C31.0001 22.8097 30.4404 22.2501 29.7501 22.2501Z" fill="white"/>
<path d="M15.1162 23.1339L15.1176 23.1352C15.1463 23.1638 15.1764 23.191 15.2078 23.2167C15.2224 23.2287 15.2376 23.239 15.2526 23.2502C15.2703 23.2634 15.2876 23.2772 15.3061 23.2895C15.3239 23.3015 15.3424 23.3118 15.3607 23.3227C15.3774 23.3326 15.3937 23.3431 15.4109 23.3523C15.4295 23.3623 15.4488 23.3708 15.4678 23.3797C15.4857 23.3882 15.5034 23.3972 15.5218 23.4048C15.5402 23.4124 15.5591 23.4187 15.5778 23.4253C15.5976 23.4324 15.617 23.44 15.6372 23.4461C15.656 23.4518 15.6751 23.4559 15.694 23.4607C15.7145 23.4659 15.7349 23.4716 15.7558 23.4758C15.7778 23.4801 15.7999 23.4827 15.822 23.4859C15.8402 23.4885 15.8582 23.492 15.8767 23.4938C15.9587 23.5019 16.0414 23.5019 16.1234 23.4938C16.1419 23.492 16.1598 23.4886 16.1781 23.4859C16.2002 23.4828 16.2224 23.4802 16.2443 23.4758C16.2653 23.4716 16.2855 23.4659 16.3061 23.4607C16.3251 23.4559 16.3441 23.4518 16.3629 23.4461C16.383 23.44 16.4026 23.4324 16.4222 23.4253C16.441 23.4186 16.4599 23.4124 16.4783 23.4048C16.4967 23.3972 16.5143 23.3882 16.5323 23.3797C16.5513 23.3708 16.5705 23.3623 16.5892 23.3523C16.6063 23.3431 16.6227 23.3326 16.6394 23.3227C16.6577 23.3118 16.6762 23.3014 16.694 23.2895C16.7125 23.2772 16.7298 23.2634 16.7475 23.2502C16.7624 23.239 16.7777 23.2286 16.7923 23.2167C16.8236 23.191 16.8538 23.1638 16.8825 23.1352L16.8838 23.1339L23.1339 16.8839C23.622 16.3958 23.622 15.6043 23.1339 15.1161C22.6457 14.628 21.8542 14.628 21.3661 15.1161L17.25 19.2322V2.24998C17.2501 1.55963 16.6905 1 16.0001 1C15.3098 1 14.7501 1.55963 14.7501 2.24998V19.2322L10.634 15.1161C10.1459 14.628 9.35441 14.628 8.86627 15.1161C8.37812 15.6043 8.37812 16.3958 8.86627 16.8839L15.1162 23.1339Z" stroke="white"/>
<path d="M29.7501 22.2501C29.0597 22.2501 28.5001 22.8097 28.5001 23.5001V28.5001H3.50002V23.5001C3.50002 22.8097 2.94039 22.2501 2.25004 22.2501C1.55963 22.2501 1 22.8097 1 23.5001V29.7501C1 30.4405 1.55963 31.0001 2.24998 31.0001H29.75C30.4404 31.0001 31 30.4405 31 29.7501V23.5001C31.0001 22.8097 30.4404 22.2501 29.7501 22.2501Z" stroke="white"/>
</svg>
