<svg width="19" height="24" viewBox="0 0 19 24" fill="none" xmlns="http://www.w3.org/2000/svg">
<path d="M6.5 9.8H7.6C7.89174 9.8 8.17153 9.68411 8.37782 9.47782C8.58411 9.27153 8.7 8.99174 8.7 8.7C8.7 8.40826 8.58411 8.12847 8.37782 7.92218C8.17153 7.71589 7.89174 7.6 7.6 7.6H6.5C6.20826 7.6 5.92847 7.71589 5.72218 7.92218C5.51589 8.12847 5.4 8.40826 5.4 8.7C5.4 8.99174 5.51589 9.27153 5.72218 9.47782C5.92847 9.68411 6.20826 9.8 6.5 9.8ZM6.5 12C6.20826 12 5.92847 12.1159 5.72218 12.3222C5.51589 12.5285 5.4 12.8083 5.4 13.1C5.4 13.3917 5.51589 13.6715 5.72218 13.8778C5.92847 14.0841 6.20826 14.2 6.5 14.2H13.1C13.3917 14.2 13.6715 14.0841 13.8778 13.8778C14.0841 13.6715 14.2 13.3917 14.2 13.1C14.2 12.8083 14.0841 12.5285 13.8778 12.3222C13.6715 12.1159 13.3917 12 13.1 12H6.5ZM18.6 8.634C18.5885 8.53295 18.5664 8.43339 18.534 8.337V8.238C18.4811 8.1249 18.4106 8.02093 18.325 7.93L11.725 1.33C11.6341 1.24444 11.5301 1.17389 11.417 1.121C11.3842 1.11634 11.3508 1.11634 11.318 1.121C11.2063 1.05692 11.0828 1.01578 10.955 1H4.3C3.42479 1 2.58542 1.34768 1.96655 1.96655C1.34768 2.58542 1 3.42479 1 4.3V19.7C1 20.5752 1.34768 21.4146 1.96655 22.0335C2.58542 22.6523 3.42479 23 4.3 23H15.3C16.1752 23 17.0146 22.6523 17.6335 22.0335C18.2523 21.4146 18.6 20.5752 18.6 19.7V8.7C18.6 8.7 18.6 8.7 18.6 8.634ZM12 4.751L14.849 7.6H13.1C12.8083 7.6 12.5285 7.48411 12.3222 7.27782C12.1159 7.07153 12 6.79174 12 6.5V4.751ZM16.4 19.7C16.4 19.9917 16.2841 20.2715 16.0778 20.4778C15.8715 20.6841 15.5917 20.8 15.3 20.8H4.3C4.00826 20.8 3.72847 20.6841 3.52218 20.4778C3.31589 20.2715 3.2 19.9917 3.2 19.7V4.3C3.2 4.00826 3.31589 3.72847 3.52218 3.52218C3.72847 3.31589 4.00826 3.2 4.3 3.2H9.8V6.5C9.8 7.37521 10.1477 8.21458 10.7665 8.83345C11.3854 9.45232 12.2248 9.8 13.1 9.8H16.4V19.7ZM13.1 16.4H6.5C6.20826 16.4 5.92847 16.5159 5.72218 16.7222C5.51589 16.9285 5.4 17.2083 5.4 17.5C5.4 17.7917 5.51589 18.0715 5.72218 18.2778C5.92847 18.4841 6.20826 18.6 6.5 18.6H13.1C13.3917 18.6 13.6715 18.4841 13.8778 18.2778C14.0841 18.0715 14.2 17.7917 14.2 17.5C14.2 17.2083 14.0841 16.9285 13.8778 16.7222C13.6715 16.5159 13.3917 16.4 13.1 16.4Z" fill="#04986D" stroke="white" stroke-width="0.5"/>
</svg>
