<svg width="30" height="32" viewBox="0 0 30 32" fill="none" xmlns="http://www.w3.org/2000/svg">
<path d="M29.1074 9.12109L21.4668 1.17578C21.3555 1.06445 21.209 1 21.0508 1H9.66016C8.38281 1 7.3457 2.03711 7.3457 3.30859V11.3828H2.72852C1.77344 11.3828 1 12.1621 1 13.1113V21.7656C1 22.7266 1.77344 23.5 2.72852 23.5H7.3457V28.6914C7.3457 29.9629 8.38281 31 9.66016 31H26.957C28.2344 31 29.2715 29.9629 29.2715 28.6914V9.51953C29.2715 9.36719 29.2129 9.22656 29.1074 9.12109ZM21.1914 2.55859L27.4668 9.08008H21.1914V2.55859ZM2.72852 22.3457C2.41211 22.3457 2.1543 22.0879 2.1543 21.7715V13.1113C2.1543 12.7949 2.41211 12.5371 2.72852 12.5371H18.3086C18.625 12.5371 18.8828 12.7949 18.8828 13.1113V21.7656C18.8828 22.082 18.625 22.3398 18.3086 22.3398H2.72852V22.3457ZM28.1172 28.6914C28.1172 29.3242 27.5957 29.8457 26.957 29.8457H9.66016C9.02148 29.8457 8.5 29.3301 8.5 28.6914V23.5H18.3086C19.2637 23.5 20.0371 22.7266 20.0371 21.7715V13.1113C20.0371 12.1562 19.2637 11.3828 18.3086 11.3828H8.5V3.30859C8.5 2.66992 9.02148 2.14844 9.66016 2.14844H20.043V9.64844C20.043 9.96484 20.3008 10.2227 20.6172 10.2227H28.1172V28.6914Z" fill="white" stroke="white"/>
</svg>
