<svg width="14" height="10" viewBox="0 0 14 10" fill="none" xmlns="http://www.w3.org/2000/svg">
<path d="M13.4342 0.289386C13.3433 0.197689 13.2351 0.124907 13.1159 0.0752394C12.9966 0.0255714 12.8688 0 12.7396 0C12.6105 0 12.4826 0.0255714 12.3634 0.0752394C12.2442 0.124907 12.136 0.197689 12.045 0.289386L4.75652 7.58766L1.69438 4.51573C1.59995 4.42451 1.48848 4.35279 1.36633 4.30465C1.24418 4.25652 1.11375 4.23291 0.982474 4.23518C0.851202 4.23745 0.721663 4.26555 0.601253 4.31789C0.480843 4.37022 0.371919 4.44576 0.280702 4.54019C0.189485 4.63462 0.11776 4.74609 0.0696231 4.86824C0.0214858 4.99039 -0.00212154 5.12082 0.000149603 5.25209C0.00242074 5.38336 0.0305258 5.5129 0.0828595 5.63331C0.135193 5.75372 0.210731 5.86265 0.30516 5.95386L4.06191 9.71062C4.15286 9.80231 4.26106 9.87509 4.38028 9.92476C4.4995 9.97443 4.62737 10 4.75652 10C4.88567 10 5.01354 9.97443 5.13276 9.92476C5.25198 9.87509 5.36018 9.80231 5.45113 9.71062L13.4342 1.72752C13.5335 1.63591 13.6128 1.52472 13.667 1.40096C13.7212 1.2772 13.7492 1.14356 13.7492 1.00845C13.7492 0.873344 13.7212 0.7397 13.667 0.615943C13.6128 0.492186 13.5335 0.380998 13.4342 0.289386Z" fill="white"/>
</svg>
