<svg width="40" height="42" viewBox="0 0 40 42" fill="none" xmlns="http://www.w3.org/2000/svg">
<path d="M29.7959 14.6995C29.5918 11.6383 27.1429 9.18931 24.0816 9.18931H21.4286C20.4082 9.18931 19.7959 10.0056 19.7959 10.822C19.7959 11.6383 20.6122 12.4546 21.4286 12.4546H24.0816C25.5102 12.4546 26.5306 13.475 26.5306 14.9036V17.9648C26.5306 18.1689 26.5306 18.1689 26.5306 18.373V18.5771L26.7347 18.7811C26.7347 18.9852 26.9388 18.9852 26.9388 18.9852L27.1429 19.1893L27.551 19.3934H27.7551C27.9592 19.3934 27.9592 19.3934 27.9592 19.3934C28.1633 19.3934 28.1633 19.3934 28.3673 19.3934H28.5714L36.7347 15.5158V27.7607C36.7347 28.5771 37.551 29.3934 38.3673 29.3934C39.1837 29.3934 40 28.5771 40 27.7607V12.8628C40 12.2505 39.7959 11.8424 39.1837 11.4342C38.7755 11.2301 38.1633 11.2301 37.551 11.4342L29.7959 15.3118V14.6995Z" fill="#652D90"/>
<path d="M5.71429 32.8627H24.0816C25.3061 32.8627 26.7347 32.4546 27.7551 31.6382L27.9592 31.4342L37.1429 40.6178C37.551 41.026 37.9592 41.026 38.3673 41.026C38.7755 41.026 39.1837 40.8219 39.5918 40.6178C40 40.2097 40 39.8015 40 39.3933C40 38.9852 39.7959 38.577 39.5918 38.1689L2.85714 1.43416C2.2449 0.821914 1.22449 0.821914 0.612245 1.43416C0 2.0464 0 3.06681 0.612245 3.67906L5.91837 8.98518L4.89796 9.18926C2.04082 9.59742 0 12.0464 0 14.9035V27.1484C0 30.2097 2.65306 32.8627 5.71429 32.8627ZM3.26531 14.9035C3.26531 13.475 4.28571 12.4546 5.71429 12.4546H9.18367L25.9184 29.1893L25.5102 29.3933C24.898 29.5974 24.4898 29.5974 24.0816 29.5974H5.71429C4.28571 29.5974 3.26531 28.577 3.26531 27.1484V14.9035Z" fill="#652D90"/>
</svg>
