<svg id="Camada_1" data-name="Camada 1" xmlns="http://www.w3.org/2000/svg" viewBox="0 0 20.3 11.95"><defs><style>.cls-1{fill:#04986d;}</style></defs><title>camera</title><path class="cls-1" d="M20.21,1.43A.75.75,0,0,0,20,1.16a.78.78,0,0,0-.74,0l-4.12,2,0-.46A2.79,2.79,0,0,0,14.21.8a2.84,2.84,0,0,0-2-.8H2.83A2.83,2.83,0,0,0,0,2.84V9.11a2.77,2.77,0,0,0,.83,2,2.86,2.86,0,0,0,2,.84h9.41a2.84,2.84,0,0,0,2-.8,2.79,2.79,0,0,0,.86-1.94l0-.46,4.14,2.07a.73.73,0,0,0,.33.08.79.79,0,0,0,.39-.11.75.75,0,0,0,.26-.27.78.78,0,0,0,.09-.37V1.79A.77.77,0,0,0,20.21,1.43ZM13.58,9.11a1.33,1.33,0,0,1-1.34,1.34H2.83a1.36,1.36,0,0,1-1-.39,1.34,1.34,0,0,1-.39-1V2.84a1.34,1.34,0,0,1,.39-.95,1.31,1.31,0,0,1,1-.39h9.41a1.3,1.3,0,0,1,.95.39,1.34,1.34,0,0,1,.39,1ZM18.81,9,15.07,7.08V4.87L18.81,3Z"/></svg>