<?xml version="1.0" standalone="no"?>
<!DOCTYPE svg PUBLIC "-//W3C//DTD SVG 20010904//EN"
 "http://www.w3.org/TR/2001/REC-SVG-20010904/DTD/svg10.dtd">
<svg version="1.0" xmlns="http://www.w3.org/2000/svg"
 width="260.000000pt" height="260.000000pt" viewBox="0 0 260.000000 260.000000"
 preserveAspectRatio="xMidYMid meet">
<metadata>
Created by potrace 1.11, written by Peter Selinger 2001-2013
</metadata>
<g transform="translate(0.000000,260.000000) scale(0.100000,-0.100000)"
fill="#000000" stroke="none">
<path d="M139 2582 c0 -9 -1 -442 -1 -962 l-1 -945 64 -42 c35 -23 67 -42 71
-42 3 -1 53 -28 110 -62 57 -34 157 -92 223 -129 150 -84 139 -78 441 -254
l252 -146 188 108 c860 495 957 551 967 561 9 9 13 458 5 466 -3 3 -52 -22
-111 -54 -58 -33 -150 -83 -204 -112 -54 -28 -102 -55 -108 -59 -5 -4 -41 -24
-80 -45 -38 -21 -108 -59 -155 -85 -47 -26 -116 -64 -155 -85 -38 -21 -74 -41
-80 -45 -5 -4 -55 -31 -110 -60 -55 -29 -109 -59 -120 -67 -33 -22 -22 -27
-305 135 -19 11 -127 72 -239 136 -113 64 -207 119 -210 122 -3 3 -6 50 -7
104 -1 109 -3 107 68 63 21 -13 40 -23 42 -23 2 0 71 -37 153 -83 81 -46 155
-87 163 -91 8 -4 24 -12 35 -19 11 -7 56 -32 100 -56 44 -24 99 -55 122 -68
l42 -23 353 197 c194 108 371 206 393 218 22 12 63 35 90 50 173 97 273 153
295 166 14 8 27 15 29 16 4 3 4 503 -1 508 -2 2 -82 -41 -177 -96 -96 -54
-175 -99 -176 -99 -1 0 -42 -23 -91 -51 -132 -77 -154 -89 -209 -120 -27 -15
-149 -84 -270 -154 -121 -69 -227 -127 -235 -127 -8 -1 -51 20 -95 46 -44 27
-103 61 -130 76 -28 15 -122 70 -210 120 -88 51 -180 104 -205 118 -89 50 -85
42 -85 147 -1 74 2 94 12 91 7 -3 108 -59 225 -124 117 -66 245 -136 283 -157
39 -22 99 -56 135 -76 l65 -37 95 51 c52 28 111 60 131 71 73 41 195 110 237
133 90 50 206 114 305 170 42 24 99 55 125 70 26 14 61 34 77 43 17 9 65 36
107 59 43 24 80 47 84 52 4 7 8 388 5 497 l-1 24 -32 -20 c-33 -20 -352 -196
-498 -275 -41 -22 -104 -57 -140 -77 -36 -21 -161 -90 -278 -154 l-213 -117
-312 172 c-172 95 -413 228 -537 297 -332 184 -310 173 -311 154z"/>
</g>
</svg>
