<svg width="353" height="489" viewBox="0 0 353 489" fill="none" xmlns="http://www.w3.org/2000/svg">
<path d="M318.557 64.6313C289.746 25.426 243.518 1.31231 181.5 0C179.873 0 178.408 0 176.78 0C176.617 0 176.617 0 176.454 0C176.292 0 176.292 0 176.129 0C174.501 0 173.036 0 171.408 0C109.554 1.31231 63.3255 25.426 34.677 64.6313C5.0519 104.985 -6.17959 161.578 3.26138 226.702C4.56358 235.56 5.70301 244.746 6.84243 254.096C11.2374 288.216 15.7951 324.469 26.5383 353.176C41.0253 391.889 66.9065 425.845 94.9039 450.123C122.901 474.401 152.852 488.672 176.129 489C176.292 489 176.292 489 176.454 489C176.617 489 176.617 489 176.78 489C200.057 488.836 230.17 474.401 258.005 450.123C286.165 425.845 311.883 391.725 326.37 353.176C337.114 324.469 341.834 288.216 346.066 254.096C347.206 244.746 348.508 235.56 349.647 226.702C359.251 161.578 348.02 104.985 318.557 64.6313Z" fill="#C4C4C4"/>
</svg>
